<?xml version="1.0" encoding="UTF-8" standalone="no"?>
<svg xmlns:rdf="http://www.w3.org/1999/02/22-rdf-syntax-ns#" xmlns="http://www.w3.org/2000/svg" height="225.78mm" width="225.78mm" version="1.1" xmlns:cc="http://creativecommons.org/ns#" xmlns:dc="http://purl.org/dc/elements/1.1/" viewBox="0 0 799.99998 799.99997">
<g transform="translate(1446 707.34)">
<g>
<path d="m-856.59-707.34c-83.778 0-155.56 46.889-189.42 114.22-33.866-67.333-105.64-114.22-189.51-114.22-116.22 0-210.49 89.6-210.49 200 0 200 419.96 600 419.96 600s380.04-400 380.04-600c0-110.4-94.266-200-210.58-200z" fill="#800000"/>
<path fill="#d40000" d="m-907.93-598.94c-61.074 0-113.4 34.182-138.09 83.268-24.689-49.086-77.015-83.268-138.15-83.268-84.726 0-153.45 65.318-153.45 145.8 0 145.8 306.15 437.4 306.15 437.4s277.05-291.6 277.05-437.4c0-80.482-68.72-145.8-153.51-145.8z"/>
<path d="m-955.41-498.66c-40.071 0-74.402 22.427-90.6 54.632-16.198-32.205-50.53-54.632-90.642-54.632-55.589 0-100.68 42.855-100.68 95.659 0 95.659 200.86 286.98 200.86 286.98s181.77-191.32 181.77-286.98c0-52.804-45.088-95.659-100.72-95.659z" fill="#800000"/>
<path fill="#d40000" d="m-1002.7-398.84c-19.166 0-35.586 10.727-43.334 26.13-7.7474-15.404-24.168-26.13-43.354-26.13-26.588 0-48.153 20.498-48.153 45.754 0 45.754 96.072 137.26 96.072 137.26s86.942-91.507 86.942-137.26c0-25.256-21.565-45.754-48.173-45.754z"/>
</g>
</g>
</svg>
